<?xml version="1.0" encoding="UTF-8" standalone="no"?>
<svg width="200px" height="200px" viewBox="0 0 200 200" version="1.1" xmlns="http://www.w3.org/2000/svg" xmlns:xlink="http://www.w3.org/1999/xlink">
    <!-- Generator: Sketch 3.8.3 (29802) - http://www.bohemiancoding.com/sketch -->
    <title>blackP</title>
    <desc>Created with Sketch.</desc>
    <defs>
        <path d="M120,114.000752 C120,106.275001 113.736437,100 106.009941,100 L93.9900589,100 C86.271987,100 80,106.26835 80,114.000752 L80,170 L70,170 L80,190 L120,190 L130,170 L120,170 L120,114.000752 Z M100,90 C111.045695,90 120,81.045695 120,70 C120,58.954305 111.045695,50 100,50 C88.954305,50 80,58.954305 80,70 C80,81.045695 88.954305,90 100,90 L100,90 Z" id="path-1"></path>
        <mask id="mask-2" maskContentUnits="userSpaceOnUse" maskUnits="objectBoundingBox" x="-2" y="-2" width="64" height="144">
            <rect x="68" y="48" width="64" height="144" fill="white"></rect>
            <use xlink:href="#path-1" fill="black"></use>
        </mask>
    </defs>
    <g id="Page-1" stroke="none" stroke-width="1" fill="none" fill-rule="evenodd">
        <g id="blackPieces" transform="translate(-2000.000000, 0.000000)"></g>
        <g id="Combined-Shape">
            <use fill="#3F3B9A" fill-rule="evenodd" xlink:href="#path-1"></use>
            <use stroke-opacity="0.705870697" stroke="#FFA200" mask="url(#mask-2)" stroke-width="4" xlink:href="#path-1"></use>
        </g>
    </g>
</svg>