<?xml version="1.0" encoding="UTF-8" standalone="no"?>
<svg width="200px" height="200px" viewBox="0 0 200 200" version="1.1" xmlns="http://www.w3.org/2000/svg" xmlns:xlink="http://www.w3.org/1999/xlink">
    <!-- Generator: Sketch 3.8.3 (29802) - http://www.bohemiancoding.com/sketch -->
    <title>hoverTo</title>
    <desc>Created with Sketch.</desc>
    <defs>
        <polygon id="path-1" points="119.878906 30 99.9335938 20.4179688 79.9882812 30 79.9882812 20.4179688 99.9335938 10 119.878906 20.4179687"></polygon>
        <mask id="mask-2" maskContentUnits="userSpaceOnUse" maskUnits="objectBoundingBox" x="-4" y="-4" width="47.890625" height="28">
            <rect x="75.9882812" y="6" width="47.890625" height="28" fill="white"></rect>
            <use xlink:href="#path-1" fill="black"></use>
        </mask>
        <polygon id="path-3" points="119.890625 190 99.9453125 180.417969 80 190 80 180.417969 99.9453125 170 119.890625 180.417969"></polygon>
        <mask id="mask-4" maskContentUnits="userSpaceOnUse" maskUnits="objectBoundingBox" x="-4" y="-4" width="47.890625" height="28">
            <rect x="76" y="166" width="47.890625" height="28" fill="white"></rect>
            <use xlink:href="#path-3" fill="black"></use>
        </mask>
        <polygon id="path-5" points="175.955751 52.8733539 156.010439 43.2913227 136.065126 52.8733539 136.065126 43.2913227 156.010439 32.8733539 175.955751 43.2913227"></polygon>
        <mask id="mask-6" maskContentUnits="userSpaceOnUse" maskUnits="objectBoundingBox" x="-4" y="-4" width="47.890625" height="28">
            <rect x="132.065126" y="28.8733539" width="47.890625" height="28" fill="white"></rect>
            <use xlink:href="#path-5" fill="black"></use>
        </mask>
        <polygon id="path-7" points="62.8269528 166.018725 42.8816403 156.436694 22.9363278 166.018725 22.9363278 156.436694 42.8816403 146.018725 62.8269528 156.436694"></polygon>
        <mask id="mask-8" maskContentUnits="userSpaceOnUse" maskUnits="objectBoundingBox" x="-4" y="-4" width="47.890625" height="28">
            <rect x="18.9363278" y="142.018725" width="47.890625" height="28" fill="white"></rect>
            <use xlink:href="#path-7" fill="black"></use>
        </mask>
        <polygon id="path-9" points="198.945312 109.933594 179 100.351562 159.054688 109.933594 159.054688 100.351562 179 89.9335938 198.945312 100.351562"></polygon>
        <mask id="mask-10" maskContentUnits="userSpaceOnUse" maskUnits="objectBoundingBox" x="-4" y="-4" width="47.890625" height="28">
            <rect x="155.054688" y="85.9335938" width="47.890625" height="28" fill="white"></rect>
            <use xlink:href="#path-9" fill="black"></use>
        </mask>
        <polygon id="path-11" points="38.9453125 109.945312 19 100.363281 -0.9453125 109.945312 -0.9453125 100.363281 19 89.9453125 38.9453125 100.363281"></polygon>
        <mask id="mask-12" maskContentUnits="userSpaceOnUse" maskUnits="objectBoundingBox" x="-4" y="-4" width="47.890625" height="28">
            <rect x="-4.9453125" y="85.9453125" width="47.890625" height="28" fill="white"></rect>
            <use xlink:href="#path-11" fill="black"></use>
        </mask>
        <polygon id="path-13" points="175.207258 166.37514 155.261945 156.793108 135.316633 166.37514 135.316633 156.793108 155.261945 146.37514 175.207258 156.793108"></polygon>
        <mask id="mask-14" maskContentUnits="userSpaceOnUse" maskUnits="objectBoundingBox" x="-4" y="-4" width="47.890625" height="28">
            <rect x="131.316633" y="142.37514" width="47.890625" height="28" fill="white"></rect>
            <use xlink:href="#path-13" fill="black"></use>
        </mask>
        <polygon id="path-15" points="62.0618865 53.246341 42.116574 43.6643097 22.1712615 53.246341 22.1712615 43.6643097 42.116574 33.246341 62.0618865 43.6643097"></polygon>
        <mask id="mask-16" maskContentUnits="userSpaceOnUse" maskUnits="objectBoundingBox" x="-4" y="-4" width="47.890625" height="28">
            <rect x="18.1712615" y="29.246341" width="47.890625" height="28" fill="white"></rect>
            <use xlink:href="#path-15" fill="black"></use>
        </mask>
    </defs>
    <g id="Page-1" stroke="none" stroke-width="1" fill="none" fill-rule="evenodd" opacity="0.75">
        <g id="Path-81">
            <use fill="#000000" fill-rule="evenodd" xlink:href="#path-1"></use>
            <use stroke="#FFFFFF" mask="url(#mask-2)" stroke-width="8" xlink:href="#path-1"></use>
        </g>
        <g id="Path-81-Copy" transform="translate(99.945312, 180.000000) scale(1, -1) translate(-99.945312, -180.000000) ">
            <use fill="#000000" fill-rule="evenodd" xlink:href="#path-3"></use>
            <use stroke="#FFFFFF" mask="url(#mask-4)" stroke-width="8" xlink:href="#path-3"></use>
        </g>
        <g id="Path-81" transform="translate(156.010439, 42.873354) rotate(45.000000) translate(-156.010439, -42.873354) ">
            <use fill="#000000" fill-rule="evenodd" xlink:href="#path-5"></use>
            <use stroke="#FFFFFF" mask="url(#mask-6)" stroke-width="8" xlink:href="#path-5"></use>
        </g>
        <g id="Path-81-Copy" transform="translate(42.881640, 156.018725) scale(1, -1) rotate(-45.000000) translate(-42.881640, -156.018725) ">
            <use fill="#000000" fill-rule="evenodd" xlink:href="#path-7"></use>
            <use stroke="#FFFFFF" mask="url(#mask-8)" stroke-width="8" xlink:href="#path-7"></use>
        </g>
        <g id="Path-81" transform="translate(179.000000, 99.933594) rotate(90.000000) translate(-179.000000, -99.933594) ">
            <use fill="#000000" fill-rule="evenodd" xlink:href="#path-9"></use>
            <use stroke="#FFFFFF" mask="url(#mask-10)" stroke-width="8" xlink:href="#path-9"></use>
        </g>
        <g id="Path-81-Copy" transform="translate(19.000000, 99.945312) scale(1, -1) rotate(-90.000000) translate(-19.000000, -99.945312) ">
            <use fill="#000000" fill-rule="evenodd" xlink:href="#path-11"></use>
            <use stroke="#FFFFFF" mask="url(#mask-12)" stroke-width="8" xlink:href="#path-11"></use>
        </g>
        <g id="Path-81" transform="translate(155.261945, 156.375140) rotate(135.000000) translate(-155.261945, -156.375140) ">
            <use fill="#000000" fill-rule="evenodd" xlink:href="#path-13"></use>
            <use stroke="#FFFFFF" mask="url(#mask-14)" stroke-width="8" xlink:href="#path-13"></use>
        </g>
        <g id="Path-81-Copy" transform="translate(42.116574, 43.246341) scale(1, -1) rotate(-135.000000) translate(-42.116574, -43.246341) ">
            <use fill="#000000" fill-rule="evenodd" xlink:href="#path-15"></use>
            <use stroke="#FFFFFF" mask="url(#mask-16)" stroke-width="8" xlink:href="#path-15"></use>
        </g>
    </g>
</svg>