<?xml version="1.0" encoding="UTF-8" standalone="no"?>
<svg width="200px" height="200px" viewBox="0 0 200 200" version="1.1" xmlns="http://www.w3.org/2000/svg" xmlns:xlink="http://www.w3.org/1999/xlink">
    <!-- Generator: Sketch 3.8.3 (29802) - http://www.bohemiancoding.com/sketch -->
    <title>whiteK</title>
    <desc>Created with Sketch.</desc>
    <defs>
        <path d="M150,114.000752 C150,106.275001 143.727569,100 135.990134,100 L64.0098659,100 C56.2743766,100 50,106.26835 50,114.000752 L50,170 L20,170 L20,190 L180,190 L180,170 L150,170 L150,114.000752 Z M110,45 L110,20 L90,20 L90,45 L60,45 L60,65 L90,65 L90,90 L110,90 L110,65 L140,65 L140,45 L110,45 L110,45 Z" id="path-1"></path>
        <mask id="mask-2" maskContentUnits="userSpaceOnUse" maskUnits="objectBoundingBox" x="-2" y="-2" width="164" height="174">
            <rect x="18" y="18" width="164" height="174" fill="white"></rect>
            <use xlink:href="#path-1" fill="black"></use>
        </mask>
    </defs>
    <g id="Page-1" stroke="none" stroke-width="1" fill="none" fill-rule="evenodd">
        <g id="whitePieces" transform="translate(-1600.000000, 0.000000)"></g>
        <g id="Combined-Shape-Copy-3">
            <use fill="#FFA200" fill-rule="evenodd" xlink:href="#path-1"></use>
            <use stroke="#00004A" mask="url(#mask-2)" stroke-width="4" xlink:href="#path-1"></use>
        </g>
    </g>
</svg>