<?xml version="1.0" encoding="UTF-8" standalone="no"?>
<svg width="200px" height="200px" viewBox="0 0 200 200" version="1.1" xmlns="http://www.w3.org/2000/svg" xmlns:xlink="http://www.w3.org/1999/xlink">
    <!-- Generator: Sketch 3.8.3 (29802) - http://www.bohemiancoding.com/sketch -->
    <title>white7</title>
    <desc>Created with Sketch.</desc>
    <defs></defs>
    <g id="Page-1" stroke="none" stroke-width="1" fill="none" fill-rule="evenodd">
        <g id="influenceWhite" transform="translate(-2400.000000, 0.000000)"></g>
        <g id="blocks-copy" transform="translate(-901.000000, 160.000000) scale(1, -1) translate(901.000000, -160.000000) translate(-2401.000000, 120.000000)" fill="#FFA200">
            <rect id="Rectangle-17-Copy-6" x="2400" y="0" width="200" height="70"></rect>
        </g>
        <g id="lines" transform="translate(-2000.000000, -391.000000)" stroke-linecap="square">
            <path d="M2000.5,580.5 L2198.5,580.5" id="Line-Copy-19" stroke="#818181" transform="translate(2099.500000, 580.500000) scale(1, -1) translate(-2099.500000, -580.500000) "></path>
            <path d="M2000.5,570.5 L2198.5,570.5" id="Line-Copy-20" stroke="#000000" transform="translate(2099.500000, 570.500000) scale(1, -1) translate(-2099.500000, -570.500000) "></path>
            <path d="M2000.5,560.5 L2198.5,560.5" id="Line-Copy-21" stroke="#818181" transform="translate(2099.500000, 560.500000) scale(1, -1) translate(-2099.500000, -560.500000) "></path>
            <path d="M2000.5,550.5 L2198.5,550.5" id="Line-Copy-22" stroke="#000000" transform="translate(2099.500000, 550.500000) scale(1, -1) translate(-2099.500000, -550.500000) "></path>
            <path d="M1999.5,540.5 L2197.5,540.5" id="Line-Copy-23" stroke="#818181" transform="translate(2098.500000, 540.500000) scale(1, -1) translate(-2098.500000, -540.500000) "></path>
            <path d="M1999.5,530.5 L2197.5,530.5" id="Line-Copy-24" stroke="#000000" transform="translate(2098.500000, 530.500000) scale(1, -1) translate(-2098.500000, -530.500000) "></path>
        </g>
    </g>
</svg>