<?xml version="1.0" encoding="UTF-8" standalone="no"?>
<svg width="200px" height="200px" viewBox="0 0 200 200" version="1.1" xmlns="http://www.w3.org/2000/svg" xmlns:xlink="http://www.w3.org/1999/xlink">
    <!-- Generator: Sketch 3.8.3 (29802) - http://www.bohemiancoding.com/sketch -->
    <title>whiteQ</title>
    <desc>Created with Sketch.</desc>
    <defs>
        <path d="M150,114.000752 C150,106.275001 143.727569,100 135.990134,100 L64.0098659,100 C56.2743766,100 50,106.26835 50,114.000752 L50,170 L20,170 L20,190 L180,190 L180,170 L150,170 L150,114.000752 Z M99.574579,70.8816209 L82.3538245,93.1491579 L85.9224387,65.2267193 L58,68.7953334 L80.267537,51.574579 L58,34.3538245 L85.9224387,37.9224387 L82.3538245,10 L99.574579,32.267537 L116.795333,10 L113.226719,37.9224387 L141.149158,34.3538245 L118.881621,51.574579 L141.149158,68.7953334 L113.226719,65.2267193 L116.795333,93.1491579 L99.574579,70.8816209 L99.574579,70.8816209 Z" id="path-1"></path>
        <mask id="mask-2" maskContentUnits="userSpaceOnUse" maskUnits="objectBoundingBox" x="-2" y="-2" width="164" height="184">
            <rect x="18" y="8" width="164" height="184" fill="white"></rect>
            <use xlink:href="#path-1" fill="black"></use>
        </mask>
    </defs>
    <g id="Page-1" stroke="none" stroke-width="1" fill="none" fill-rule="evenodd">
        <g id="whitePieces" transform="translate(-1200.000000, 0.000000)"></g>
        <g id="Combined-Shape-Copy-2">
            <use fill="#FFA200" fill-rule="evenodd" xlink:href="#path-1"></use>
            <use stroke="#00004A" mask="url(#mask-2)" stroke-width="4" xlink:href="#path-1"></use>
        </g>
    </g>
</svg>